#N canvas 795 503 450 300 12;
#X obj 31 43 inlet~;
#X obj 31 240 outlet~;
#X obj 114 42 inlet;
#X obj 113 115 dbtorms;
#X obj 113 90 + 100;
#X obj 113 182 line~;
#X msg 113 145 \$1 30;
#X obj 32 215 *~;
#X text 30 15 Audio in;
#X text 111 13 Gain (dB);
#X connect 0 0 7 0;
#X connect 2 0 4 0;
#X connect 3 0 6 0;
#X connect 4 0 3 0;
#X connect 5 0 7 1;
#X connect 6 0 5 0;
#X connect 7 0 1 0;
