#N canvas 400 639 981 459 10;
#X obj 143 143 readsf~;
#X obj 143 96 bng 15 250 50 0 empty empty empty 17 7 0 10 -262144 -1
-1;
#X obj 274 145 readsf~;
#X obj 417 144 readsf~;
#X obj 581 144 readsf~;
#X obj 764 145 readsf~;
#X obj 159 250 line~;
#X obj 159 223 pack f 500;
#X obj 143 291 *~;
#X obj 292 244 line~;
#X obj 292 217 pack f 500;
#X obj 292 192 tgl 15 0 empty empty empty 17 7 0 10 -262144 -1 -1 0
1;
#X obj 432 244 line~;
#X obj 432 217 pack f 500;
#X obj 432 192 tgl 15 0 empty empty empty 17 7 0 10 -262144 -1 -1 0
1;
#X obj 598 244 line~;
#X obj 598 217 pack f 500;
#X obj 598 192 tgl 15 0 empty empty empty 17 7 0 10 -262144 -1 -1 0
1;
#X obj 779 240 line~;
#X obj 779 213 pack f 500;
#X obj 778 188 tgl 15 0 empty empty empty 17 7 0 10 -262144 -1 -1 0
1;
#X obj 277 288 *~;
#X obj 416 287 *~;
#X obj 582 284 *~;
#X obj 764 280 *~;
#X obj 143 337 dac~, f 24;
#N canvas 752 148 452 462 select-midi 0;
#X obj 96 145 outlet;
#X obj 96 44 midiin;
#X obj 96 71 midiparse;
#X obj 96 95 route 69 63 65 67 72;
#X text 63 164 green----;
#X text 64 203 black-------;
#X text 65 243 blue------------;
#X text 64 283 yellow--------------;
#X text 63 124 red--;
#X obj 119 185 outlet;
#X obj 142 225 outlet;
#X obj 166 265 outlet;
#X obj 189 306 outlet;
#X obj 96 121 / 127;
#X obj 119 163 / 127;
#X obj 142 204 / 127;
#X obj 167 245 / 127;
#X obj 189 284 / 127;
#X connect 1 0 2 0;
#X connect 2 0 3 0;
#X connect 3 0 13 0;
#X connect 3 1 14 0;
#X connect 3 2 15 0;
#X connect 3 3 16 0;
#X connect 3 4 17 0;
#X connect 13 0 0 0;
#X connect 14 0 9 0;
#X connect 15 0 10 0;
#X connect 16 0 11 0;
#X connect 17 0 12 0;
#X restore 6 163 pd select-midi;
#X obj 158 192 tgl 15 0 empty empty empty 17 7 0 10 -262144 -1 -1 0
1;
#X msg 8 121 \; pd dsp 1;
#X msg 143 121 open 1.wav \, 1;
#X msg 274 121 open 2.wav \, 1;
#X msg 418 119 open 3.wav \, 1;
#X msg 581 120 open 4.wav \, 1;
#X msg 764 121 open 5.wav \, 1;
#X text 146 15 Midi Solo;
#X text 144 38 Play multiple mono audio files and control mute/solo
with midi buttons. Set up for midi controller made from teensy arduino
and arcade buttons. Edit "select-midi" to change midi notes., f 72
;
#X connect 0 0 8 0;
#X connect 1 0 30 0;
#X connect 1 0 31 0;
#X connect 1 0 32 0;
#X connect 1 0 33 0;
#X connect 1 0 28 0;
#X connect 1 0 29 0;
#X connect 2 0 21 0;
#X connect 3 0 22 0;
#X connect 4 0 23 0;
#X connect 5 0 24 0;
#X connect 6 0 8 1;
#X connect 7 0 6 0;
#X connect 8 0 25 0;
#X connect 8 0 25 1;
#X connect 9 0 21 1;
#X connect 10 0 9 0;
#X connect 11 0 10 0;
#X connect 12 0 22 1;
#X connect 13 0 12 0;
#X connect 14 0 13 0;
#X connect 15 0 23 1;
#X connect 16 0 15 0;
#X connect 17 0 16 0;
#X connect 18 0 24 1;
#X connect 19 0 18 0;
#X connect 20 0 19 0;
#X connect 21 0 25 0;
#X connect 21 0 25 1;
#X connect 22 0 25 0;
#X connect 22 0 25 1;
#X connect 23 0 25 0;
#X connect 23 0 25 1;
#X connect 24 0 25 0;
#X connect 24 0 25 1;
#X connect 26 0 27 0;
#X connect 26 1 11 0;
#X connect 26 2 14 0;
#X connect 26 3 17 0;
#X connect 26 4 20 0;
#X connect 27 0 7 0;
#X connect 29 0 0 0;
#X connect 30 0 2 0;
#X connect 31 0 3 0;
#X connect 32 0 4 0;
#X connect 33 0 5 0;
